<?xml version="1.0" standalone="no"?><!DOCTYPE svg PUBLIC "-//W3C//DTD SVG 1.1//EN" "http://www.w3.org/Graphics/SVG/1.1/DTD/svg11.dtd"><svg t="1666011781238" class="icon" viewBox="0 0 1064 1024" version="1.1" xmlns="http://www.w3.org/2000/svg" p-id="3885" xmlns:xlink="http://www.w3.org/1999/xlink" width="207.8125" height="200"><path d="M834.439758 1024H230.235645a230.235645 230.235645 0 0 1-230.235645-230.235645V517.892717a230.235645 230.235645 0 0 1 230.235645-230.235645h604.204113a230.235645 230.235645 0 0 1 230.235644 230.235645v275.871638a230.235645 230.235645 0 0 1-230.235644 230.235645zM230.235645 320.547879a197.344838 197.344838 0 0 0-197.344839 197.344838v275.871638a197.344838 197.344838 0 0 0 197.344839 197.344839h604.204113a197.344838 197.344838 0 0 0 197.344838-197.344839V517.892717a197.344838 197.344838 0 0 0-197.344838-197.344838z" fill="#FDDE80" p-id="3886"></path><path d="M905.4839 731.682958H701.067538a16.445403 16.445403 0 1 1 0-32.890806h204.416362a16.445403 16.445403 0 0 1 0 32.890806z" fill="#FDDE80" p-id="3887"></path><path d="M743.16777 496.184785a61.916943 61.670262 90 1 0 123.340524 0 61.916943 61.670262 90 1 0-123.340524 0Z" fill="#FDDE80" p-id="3888"></path><path d="M804.838032 574.547131a78.362346 78.362346 0 1 1 78.115665-78.362346 78.362346 78.362346 0 0 1-78.115665 78.362346z m0-123.833886a45.47154 45.47154 0 1 0 45.224859 45.47154 45.389313 45.389313 0 0 0-45.224859-45.47154z" fill="#FDDE80" p-id="3889"></path><path d="M165.687437 408.284105l428.320526 0 0 429.965066-428.320526 0 0-429.965066Z" fill="#FDDE80" p-id="3890"></path><path d="M544.671754 855.023482H215.023647a65.781613 65.781613 0 0 1-65.781613-65.781613V457.620314a65.781613 65.781613 0 0 1 65.781613-65.781613h329.648107a65.781613 65.781613 0 0 1 65.781612 65.781613v331.621555a65.781613 65.781613 0 0 1-65.781612 65.781613zM215.023647 424.729508a32.890806 32.890806 0 0 0-32.890807 32.890806v331.621555a32.890806 32.890806 0 0 0 32.890807 32.890807h329.648107a32.890806 32.890806 0 0 0 32.890806-32.890807V457.620314a32.890806 32.890806 0 0 0-32.890806-32.890806z" fill="#FDDE80" p-id="3891"></path><path d="M289.027961 532.035764l188.21764 0 0 188.875455-188.21764 0 0-188.875455Z" fill="#FDDE80" p-id="3892"></path><path d="M427.580483 737.356622H338.364171a65.781613 65.781613 0 0 1-65.781613-65.781612v-90.449718a65.781613 65.781613 0 0 1 65.781613-65.781613H427.580483a65.781613 65.781613 0 0 1 65.781613 65.781613v90.449718a65.781613 65.781613 0 0 1-65.781613 65.781612z m-89.54522-189.122136a32.890806 32.890806 0 0 0-32.890807 32.890806v90.449718a32.890806 32.890806 0 0 0 32.890807 32.890806H427.580483a32.890806 32.890806 0 0 0 32.890806-32.890806v-90.449718a32.890806 32.890806 0 0 0-32.890806-32.890806zM905.4839 822.132676H701.067538a16.445403 16.445403 0 1 1 0-32.890807h204.416362a16.445403 16.445403 0 0 1 0 32.890807z" fill="#FDDE80" p-id="3893"></path><path d="M552.565547 279.434371l306.377862-263.126451a17.514354 17.514354 0 0 1 24.668104 1.891221l0.575589 0.657816a19.405576 19.405576 0 0 1-2.631264 26.477099l-296.017257 249.887902a27.463823 27.463823 0 0 1-30.095088 3.617988 12.745187 12.745187 0 0 1-6.167027-7.071523 12.745187 12.745187 0 0 1 3.289081-12.334052z" fill="#FDDE80" p-id="3894"></path><path d="M567.777545 314.298625a39.304514 39.304514 0 0 1-17.843262-4.275804 24.174743 24.174743 0 0 1-12.334053-14.143047 24.668105 24.668105 0 0 1 1.562314-18.912214 22.612429 22.612429 0 0 1 4.93362-6.578161v-0.411135L850.885161 7.098494a30.012861 30.012861 0 0 1 42.018005 3.206853l0.575589 0.57559a31.986309 31.986309 0 0 1-3.86467 43.909226l-296.017257 250.052356a40.126784 40.126784 0 0 1-25.819283 9.456106z m-6.495934-26.641553a14.800863 14.800863 0 0 0 16.445403-1.973448l296.017257-249.970129a6.907069 6.907069 0 0 0 0.822271-9.456106 5.344756 5.344756 0 0 0-7.400432-0.657817z" fill="#FDDE80" p-id="3895"></path><path d="M528.308577 279.434371L222.012943 16.30792a17.514354 17.514354 0 0 0-24.668105 1.891221l-0.575589 0.657816a19.405576 19.405576 0 0 0 2.549038 26.477099l296.428392 250.545718a27.463823 27.463823 0 0 0 30.506223 3.28908 12.745187 12.745187 0 0 0 6.167026-7.071523 12.334052 12.334052 0 0 0-0.82227-9.37388 13.23855 13.23855 0 0 0-3.289081-3.28908z" fill="#FDDE80" p-id="3896"></path><path d="M513.507715 314.463079a39.715649 39.715649 0 0 1-25.737056-9.538333l-296.017258-249.970129a31.986309 31.986309 0 0 1-4.358032-43.498091l1.068952-1.233406A30.012861 30.012861 0 0 1 230.235645 7.098494l306.295634 263.126451a22.694656 22.694656 0 0 1 5.755891 7.071523 24.668105 24.668105 0 0 1-10.689512 33.301942 39.304514 39.304514 0 0 1-18.089943 3.864669zM210.665615 24.530621a5.591437 5.591437 0 0 0-4.029124 1.808995l-0.575589 0.740043a6.989296 6.989296 0 0 0 1.397859 9.044971l296.017258 249.887902a14.965317 14.965317 0 0 0 16.445403 2.220129L213.790241 25.846253a4.933621 4.933621 0 0 0-3.124626-1.315632z m309.584715 263.126451z" fill="#FDDE80" p-id="3897"></path></svg>