<svg width="37" height="14" viewBox="0 0 37 14" fill="none" xmlns="http://www.w3.org/2000/svg">
  <path fill-rule="evenodd" clip-rule="evenodd"
    d="M7 0C3.13401 0 0 3.13401 0 7C0 10.866 3.13401 14 7 14H30C33.866 14 37 10.866 37 7C37 3.13401 33.866 0 30 0H7ZM12.4311 10.9346H9V3H12.1573C12.9583 3.00726 13.5599 3.20317 13.9623 3.58775C14.3684 3.97595 14.5714 4.48932 14.5714 5.12786C14.5788 5.45438 14.4987 5.7664 14.3311 6.0639C14.2454 6.20539 14.1225 6.33963 13.9623 6.46661C13.8021 6.60085 13.6046 6.72239 13.3699 6.83123V6.853C13.8133 6.96547 14.1486 7.19222 14.3758 7.53326C14.5882 7.88518 14.6943 8.26794 14.6943 8.68154C14.6869 9.36725 14.4671 9.90964 14.0349 10.3087C13.6065 10.726 13.0719 10.9346 12.4311 10.9346ZM13.1408 7.76727C12.9285 7.5387 12.5932 7.42079 12.135 7.41354H10.235V9.79717H12.135C12.5932 9.78992 12.9285 9.66838 13.1408 9.43255C13.3532 9.20036 13.4593 8.92462 13.4593 8.60535C13.4593 8.27883 13.3532 7.99947 13.1408 7.76727ZM13.0123 4.39318C12.7999 4.18638 12.4684 4.07935 12.0176 4.07209H10.235V6.34144H12.0176C12.4684 6.34144 12.7999 6.22716 13.0123 5.99859C13.2284 5.78816 13.3364 5.52332 13.3364 5.20405C13.3364 4.88478 13.2284 4.61449 13.0123 4.39318ZM20.3775 7.60401V8.54005H16.7619C16.7619 8.99356 16.8961 9.33822 17.1643 9.57405C17.4139 9.8135 17.7417 9.93322 18.1478 9.93322C18.6209 9.93322 19.0438 9.75001 19.4163 9.38357L20.2601 10.0856C19.6678 10.7024 18.9711 11.0071 18.1702 10.9999C17.8647 10.9999 17.5666 10.9563 17.2761 10.8693C17.1308 10.8221 16.9892 10.7586 16.8514 10.6788C16.7061 10.6099 16.5701 10.5246 16.4434 10.423C16.1975 10.2126 15.9982 9.91871 15.8455 9.54139C15.6778 9.17859 15.594 8.70694 15.594 8.12645C15.594 7.56773 15.6667 7.10334 15.812 6.73327C15.9573 6.35596 16.1435 6.05845 16.3708 5.84077C16.6018 5.61946 16.8607 5.45983 17.1475 5.36187C17.4307 5.26391 17.7101 5.21493 17.9858 5.21493C18.6489 5.22219 19.2096 5.43443 19.6678 5.85166C20.1335 6.27614 20.37 6.86026 20.3775 7.60401ZM17.1252 6.60811C16.9054 6.83305 16.7843 7.16501 16.7619 7.60401H19.2096C19.1947 7.16501 19.0736 6.83305 18.8463 6.60811C18.6228 6.39405 18.3359 6.28702 17.9858 6.28702C17.6356 6.28702 17.3487 6.39405 17.1252 6.60811ZM21.6683 5.28568H21.0872V6.15097H21.6683V9.54139C21.6683 9.98764 21.8025 10.3287 22.0707 10.5645C22.3315 10.8112 22.6668 10.9346 23.0766 10.9346H23.6857V9.86248H23.2498C22.9667 9.86973 22.8288 9.73005 22.8363 9.44344V6.15097H23.6857V5.28568H22.8363V3.56598H21.6683V5.28568ZM29 10.9346H27.8321V10.4339H27.8097C27.7017 10.6262 27.534 10.7677 27.3068 10.8584C27.0833 10.9527 26.7741 10.9999 26.3792 10.9999C25.7309 10.9926 25.2317 10.8257 24.8815 10.4992C24.5127 10.1799 24.3283 9.77177 24.3283 9.27473C24.3283 8.79945 24.4885 8.40581 24.8089 8.0938C25.1293 7.77453 25.5987 7.61126 26.2171 7.60401H27.8321V7.01082C27.8395 6.51378 27.4428 6.27251 26.6418 6.28702C26.3512 6.28702 26.1221 6.31605 25.9545 6.3741C25.7794 6.44303 25.6415 6.55913 25.5409 6.72239L24.6245 6.04213C25.0678 5.47615 25.7216 5.20042 26.5859 5.21493C27.3161 5.20767 27.8991 5.34191 28.335 5.61765C28.7709 5.90063 28.9925 6.38679 29 7.07613V10.9346ZM27.5583 9.76452C27.7408 9.64479 27.8321 9.37269 27.8321 8.94821V8.54005H26.435C25.757 8.55456 25.4217 8.78131 25.4292 9.22031C25.4292 9.4126 25.5167 9.57586 25.6918 9.7101C25.8595 9.85885 26.137 9.93322 26.5244 9.93322C27.0125 9.94048 27.3571 9.88424 27.5583 9.76452Z"
    fill="#C9CCD0" />
</svg>