<?xml version="1.0" standalone="no"?><!DOCTYPE svg PUBLIC "-//W3C//DTD SVG 1.1//EN" "http://www.w3.org/Graphics/SVG/1.1/DTD/svg11.dtd"><svg t="1662520241173" class="icon" viewBox="0 0 1024 1024" version="1.1" xmlns="http://www.w3.org/2000/svg" p-id="3712" xmlns:xlink="http://www.w3.org/1999/xlink" width="200" height="200"><path d="M922.2 572.8c-1.9-32.1-17.3-62.8-43.6-86.3-24.1-21.7-55.3-35-85.6-36.6-37.3-2-60.5 13.7-81.1 27.6-16.4 11.1-31.9 21.5-58.6 26-26 4.3-45.3 0.2-62.2-3.4-3-0.6-5.9-1.3-8.8-1.8 2.3-2.9 4.6-5.9 7-9.1 15.1-19.9 33.9-44.8 68.6-67.9 17-11.3 28.1-15.9 38.9-20.2 15.3-6.2 31.2-12.6 50.3-32.6 21.6-22.6 38.2-52.5 45.6-82 9.8-39 2.8-74.8-19.5-100.7-12.4-14.3-29.4-25.7-49.2-32.8-19.1-6.8-39.4-9.3-58.7-7.1-37.7 4.3-71.5 25.1-93.5 42.2-22.7-18.7-58.6-42.8-100.5-51.1-9.8-1.9-61.1-10.2-104 17.9-27 17.7-45.9 46.4-53.2 80.9-6.7 31.8-2.7 65.5 11.1 92.5 17 33.2 42.3 45.6 64.7 56.4 17.9 8.7 34.8 16.9 52.1 37.8 16.9 20.3 22.9 39.1 28.3 55.6 0.9 2.9 1.9 5.7 2.8 8.5-3.6-0.5-7.4-0.9-11.3-1.4-24.7-3-55.5-6.7-92.6-24.8-18.2-8.9-27.6-16.1-36.7-23.2-13-10.1-26.5-20.5-53.3-26.8-30.2-7.2-64.3-6.4-93.5 2-38.5 11.1-66 34.9-77.4 67-12.5 35.3-4.9 80.6 19 112.9 22.3 30.1 56.9 48.6 82.5 59-4.9 28.8-8 71.5 5.6 111.4 3.2 9.4 21.5 57.7 67.3 80.5 16.3 8.1 34.5 12.2 53.2 12.2 14.2 0 28.7-2.3 43.2-7.1 30.8-10.1 57.9-30.4 74.5-55.7 20.4-31.2 18.5-59.1 16.9-83.7-1.3-19.6-2.5-38.2 7-63.4 9.3-24.6 22.5-39.2 34.2-52.1 2.1-2.3 4.1-4.5 6.1-6.8 1.4 3.5 3 7.2 4.6 10.9 9.8 23 21.9 51.6 24.7 93 1.4 20.3-0.3 32.1-1.9 43.6-2.3 16.4-4.6 33.3 3.3 59.7 8.9 29.9 26.5 59.1 48.4 80.3 23.8 23 51.4 35.1 79.2 35.1 5.9 0 11.8-0.5 17.7-1.7 36.8-6.9 72.3-36.3 88.4-73.2 15.1-34.6 13.8-74 10-101.6 27.4-10.2 66.2-29.1 94.1-61 6.2-7.6 38.9-47.8 35.9-98.9zM420.5 321.5c-19-9.2-26.9-13.4-33-25.3-12.6-24.7-7.5-66.3 18.1-83 10.8-7.1 25-9.2 36.5-9.2 6.3 0 11.9 0.6 15.6 1.4 47 9.3 87.2 52.7 87.5 53l25.1 28.1 26.1-27.4c9.8-10.3 44.9-40.4 76.5-43.9 17.2-1.9 37.5 4.9 47 16 16.6 19.2 1.2 62.7-23.7 88.7-8.7 9.1-13.7 11.1-25.9 16.1-12.1 4.9-28.6 11.6-51.5 26.9-31 20.7-52.4 42.8-68.1 61.6 11.3-26.3 26.6-64.3 33.9-93.2 3.1-12.2-5.8-24.2-18.4-24.8-9.5-0.5-18 5.9-20.3 15.1-5.6 22.1-18.4 55.4-30.6 84.1-5.2-9-11.6-18.5-19.6-28.1-26.8-32.5-54.8-46.2-75.2-56.1z m-20.1 391.7c1.4 20.8 1.7 29.6-5.6 40.8-15.2 23.2-53.9 39.7-81 26.2-17.6-8.8-28.8-30.3-32.2-40.4-15-44.1 2.1-99.4 2.7-101.2l12.1-36.1-37.3-8.8c-13.7-3.2-57-18.2-75.6-43.4-10.1-13.6-14.1-34.2-9.3-47.8 8.5-23.9 53.9-32.5 88.8-24.2 12.1 2.9 16 5.9 26.6 14.1 10.2 7.9 24.2 18.7 48.8 30.7 28.1 13.7 53.6 21 75.3 25.4-24.2 6-51.6 13.7-72.1 22.1-11.7 4.7-16.1 19-9.1 29.5 5.2 8 15.4 11.1 24.2 7.5 17.9-7.2 45.5-15 72-21.5-6 9.8-11.9 21.2-16.9 34.5-14.9 39.3-12.9 70.1-11.4 92.6z m432.8-87.7c-30.9 35.3-87.4 48.4-89.4 48.8l-37 7.7 10.8 36.5c4 13.6 12.6 58.8 0 87.8-6.9 15.8-22.8 29.7-37.1 32.4-1.5 0.3-3 0.4-4.6 0.4-23.9 0-51-32.9-60.6-65.3-3.6-12-2.8-17.3-1-30.3 1.8-12.8 4.2-30.4 2.4-57.9-1.7-25.9-6.4-48.1-12-67 18 14.9 38.2 30.5 55.5 41.3 10.7 6.6 24.8 1.8 29.2-10 3.3-8.9-0.1-18.9-8.2-24-18.3-11.4-44.1-32-66.8-51.5 14.6 1.2 31.4 1.1 50.6-2.1 41.6-7 67.3-24.3 86.1-36.9 17.4-11.7 25-16.4 38.3-15.7 27.7 1.5 61.2 26.7 63 57.1 1.1 19.9-12.1 40.5-19.2 48.7z" p-id="3713" fill="#ffffff"></path></svg>