<?xml version="1.0" standalone="no"?><!DOCTYPE svg PUBLIC "-//W3C//DTD SVG 1.1//EN" "http://www.w3.org/Graphics/SVG/1.1/DTD/svg11.dtd"><svg t="1662889300796" class="icon" viewBox="0 0 1024 1024" version="1.1" xmlns="http://www.w3.org/2000/svg" p-id="2529" xmlns:xlink="http://www.w3.org/1999/xlink" width="200" height="200"><path d="M500.096 357.23264h-23.80288v23.808h-23.80288v23.80288h-23.808v23.80288h-23.80288v23.808h-23.86944v23.808h-23.80288v23.86944h-23.80288v23.80288h-23.808v23.80288h-23.808v23.808h-23.808v23.80288h-23.80288v23.808h-23.86944v23.80288h-23.80288v23.86944h-23.80288v23.80288h-23.808v23.808H119.0912v23.808h-23.80288v23.80288h-23.808v23.80288H0v-71.41376h23.80288v-23.808h23.86944v-23.80288h23.808v-23.86944h23.808v-23.80288h23.80288v-23.808h23.80288v-23.80288h23.808v-23.808h23.80288v-23.80288h23.80288v-23.80288h23.86944V476.2624h23.80288v-23.808h23.808v-23.808h23.808v-23.80288h23.808v-23.80288h23.80288v-23.808h23.80288v-23.80288h23.86944v-23.86944h23.80288v-23.80288h23.808v-23.80288h23.80288v-23.808H547.77344v23.808h23.80288v23.80288h23.808v23.80288h23.808v23.86944h23.80288v23.80288h23.80288v23.808h23.80288v23.80288h23.86944v23.80288h23.808v23.808h23.80288v23.808h23.808v23.86944h23.80288v23.80288h23.808v23.80288h23.80288v23.808h23.80288v23.80288h23.86944v23.808h23.808v23.80288h23.80288v23.86944h23.808v23.80288h23.80288v23.808H1024v71.41376h-71.41376v-23.80288h-23.80288v-23.80288h-23.808v-23.808h-23.86944v-23.808h-23.80288v-23.80288h-23.80288v-23.86944h-23.808v-23.80288h-23.80288v-23.808h-23.808v-23.80288h-23.80288v-23.808h-23.808v-23.80288h-23.86944v-23.80288h-23.80288V476.2624h-23.80288v-23.808h-23.80288v-23.808h-23.808v-23.80288h-23.808v-23.80288h-23.86432v-23.808h-23.808v-23.80288h-23.808z" p-id="2530"></path></svg>